<mxfile host="app.diagrams.net" agent="Mozilla/5.0 (Windows NT 10.0; Win64; x64) AppleWebKit/537.36 (KHTML, like Gecko) Chrome/129.0.0.0 Safari/537.36 Edg/129.0.0.0" version="24.7.17">
  <diagram name="第 1 页" id="eSVTDXhliKxFprjVSLXG">
    <mxGraphModel dx="1877" dy="611" grid="1" gridSize="10" guides="1" tooltips="1" connect="1" arrows="1" fold="1" page="1" pageScale="1" pageWidth="827" pageHeight="1169" math="0" shadow="0">
      <root>
        <mxCell id="0" />
        <mxCell id="1" parent="0" />
        <mxCell id="2-Nz5hR15z9vdlPKefg0-64" value="" style="rounded=0;whiteSpace=wrap;html=1;" vertex="1" parent="1">
          <mxGeometry x="-570" y="310" width="460" height="210" as="geometry" />
        </mxCell>
        <mxCell id="2-Nz5hR15z9vdlPKefg0-66" value="" style="rounded=0;whiteSpace=wrap;html=1;" vertex="1" parent="1">
          <mxGeometry x="-510" y="310" width="400" height="70" as="geometry" />
        </mxCell>
        <mxCell id="2-Nz5hR15z9vdlPKefg0-5" value="" style="rounded=0;whiteSpace=wrap;html=1;fillColor=#fff2cc;strokeColor=#d6b656;" vertex="1" parent="1">
          <mxGeometry x="260" y="260" width="470" height="300" as="geometry" />
        </mxCell>
        <mxCell id="2-Nz5hR15z9vdlPKefg0-57" value="" style="rounded=0;whiteSpace=wrap;html=1;fillColor=#dae8fc;strokeColor=#6c8ebf;" vertex="1" parent="1">
          <mxGeometry x="330" y="480" width="368.5" height="55" as="geometry" />
        </mxCell>
        <mxCell id="2-Nz5hR15z9vdlPKefg0-4" value="" style="rounded=0;whiteSpace=wrap;html=1;fillColor=#e1d5e7;strokeColor=#9673a6;" vertex="1" parent="1">
          <mxGeometry x="260" y="170" width="470" height="90" as="geometry" />
        </mxCell>
        <mxCell id="2-Nz5hR15z9vdlPKefg0-6" value="管理端" style="rounded=0;whiteSpace=wrap;html=1;fillColor=#ffe6cc;strokeColor=#d79b00;" vertex="1" parent="1">
          <mxGeometry x="330" y="185" width="120" height="60" as="geometry" />
        </mxCell>
        <mxCell id="2-Nz5hR15z9vdlPKefg0-7" value="企业端" style="rounded=0;whiteSpace=wrap;html=1;fillColor=#ffe6cc;strokeColor=#d79b00;" vertex="1" parent="1">
          <mxGeometry x="460" y="185" width="120" height="60" as="geometry" />
        </mxCell>
        <mxCell id="2-Nz5hR15z9vdlPKefg0-8" value="小程序" style="rounded=0;whiteSpace=wrap;html=1;fillColor=#ffe6cc;strokeColor=#d79b00;" vertex="1" parent="1">
          <mxGeometry x="590" y="185" width="120" height="60" as="geometry" />
        </mxCell>
        <mxCell id="2-Nz5hR15z9vdlPKefg0-9" value="用户层" style="text;html=1;align=center;verticalAlign=middle;whiteSpace=wrap;rounded=0;" vertex="1" parent="1">
          <mxGeometry x="270" y="200" width="60" height="30" as="geometry" />
        </mxCell>
        <mxCell id="2-Nz5hR15z9vdlPKefg0-10" value="业务层" style="text;html=1;align=center;verticalAlign=middle;whiteSpace=wrap;rounded=0;" vertex="1" parent="1">
          <mxGeometry x="260" y="380" width="60" height="30" as="geometry" />
        </mxCell>
        <mxCell id="2-Nz5hR15z9vdlPKefg0-11" value="" style="rounded=0;whiteSpace=wrap;html=1;fillColor=#dae8fc;strokeColor=#6c8ebf;" vertex="1" parent="1">
          <mxGeometry x="330" y="270" width="120" height="200" as="geometry" />
        </mxCell>
        <mxCell id="2-Nz5hR15z9vdlPKefg0-12" value="" style="rounded=0;whiteSpace=wrap;html=1;fillColor=#dae8fc;strokeColor=#6c8ebf;" vertex="1" parent="1">
          <mxGeometry x="460" y="270" width="120" height="130" as="geometry" />
        </mxCell>
        <mxCell id="2-Nz5hR15z9vdlPKefg0-13" value="互助" style="rounded=0;whiteSpace=wrap;html=1;fillColor=#dae8fc;strokeColor=#6c8ebf;" vertex="1" parent="1">
          <mxGeometry x="590" y="270" width="110" height="200" as="geometry" />
        </mxCell>
        <mxCell id="2-Nz5hR15z9vdlPKefg0-15" value="企业管理" style="rounded=0;whiteSpace=wrap;html=1;fillColor=#f8cecc;strokeColor=#b85450;" vertex="1" parent="1">
          <mxGeometry x="400" y="495" width="80" height="30" as="geometry" />
        </mxCell>
        <mxCell id="2-Nz5hR15z9vdlPKefg0-16" value="身份管理" style="rounded=0;whiteSpace=wrap;html=1;fillColor=#f8cecc;strokeColor=#b85450;" vertex="1" parent="1">
          <mxGeometry x="497.5" y="492.5" width="80" height="32.5" as="geometry" />
        </mxCell>
        <mxCell id="2-Nz5hR15z9vdlPKefg0-17" value="" style="rounded=0;whiteSpace=wrap;html=1;fillColor=#1ba1e2;fontColor=#ffffff;strokeColor=#006EAF;" vertex="1" parent="1">
          <mxGeometry x="260" y="560" width="470" height="70" as="geometry" />
        </mxCell>
        <mxCell id="2-Nz5hR15z9vdlPKefg0-18" value="关系数据库" style="rounded=0;whiteSpace=wrap;html=1;fillColor=#76608a;fontColor=#ffffff;strokeColor=#432D57;" vertex="1" parent="1">
          <mxGeometry x="330" y="572.5" width="110" height="45" as="geometry" />
        </mxCell>
        <mxCell id="2-Nz5hR15z9vdlPKefg0-19" value="数据层" style="text;html=1;align=center;verticalAlign=middle;whiteSpace=wrap;rounded=0;" vertex="1" parent="1">
          <mxGeometry x="260" y="582.5" width="60" height="30" as="geometry" />
        </mxCell>
        <mxCell id="2-Nz5hR15z9vdlPKefg0-20" value="缓存数据库" style="rounded=0;whiteSpace=wrap;html=1;fillColor=#76608a;fontColor=#ffffff;strokeColor=#432D57;" vertex="1" parent="1">
          <mxGeometry x="468.75" y="572.5" width="100" height="45" as="geometry" />
        </mxCell>
        <mxCell id="2-Nz5hR15z9vdlPKefg0-21" value="对象存储" style="rounded=0;whiteSpace=wrap;html=1;fillColor=#76608a;fontColor=#ffffff;strokeColor=#432D57;" vertex="1" parent="1">
          <mxGeometry x="600" y="572.5" width="100" height="45" as="geometry" />
        </mxCell>
        <mxCell id="2-Nz5hR15z9vdlPKefg0-26" value="党建" style="text;html=1;align=center;verticalAlign=middle;whiteSpace=wrap;rounded=0;" vertex="1" parent="1">
          <mxGeometry x="359" y="280" width="60" height="30" as="geometry" />
        </mxCell>
        <mxCell id="2-Nz5hR15z9vdlPKefg0-27" value="考试" style="rounded=0;whiteSpace=wrap;html=1;fillColor=#f8cecc;strokeColor=#b85450;" vertex="1" parent="1">
          <mxGeometry x="355" y="315" width="70" height="30" as="geometry" />
        </mxCell>
        <mxCell id="2-Nz5hR15z9vdlPKefg0-28" value="党组织" style="rounded=0;whiteSpace=wrap;html=1;fillColor=#f8cecc;strokeColor=#b85450;" vertex="1" parent="1">
          <mxGeometry x="355" y="355" width="70" height="30" as="geometry" />
        </mxCell>
        <mxCell id="2-Nz5hR15z9vdlPKefg0-29" value="咨询" style="rounded=0;whiteSpace=wrap;html=1;fillColor=#f8cecc;strokeColor=#b85450;" vertex="1" parent="1">
          <mxGeometry x="355" y="395" width="70" height="30" as="geometry" />
        </mxCell>
        <mxCell id="2-Nz5hR15z9vdlPKefg0-30" value="活动" style="rounded=0;whiteSpace=wrap;html=1;fillColor=#f8cecc;strokeColor=#b85450;" vertex="1" parent="1">
          <mxGeometry x="355" y="430" width="70" height="30" as="geometry" />
        </mxCell>
        <mxCell id="2-Nz5hR15z9vdlPKefg0-31" value="网格" style="text;html=1;align=center;verticalAlign=middle;whiteSpace=wrap;rounded=0;" vertex="1" parent="1">
          <mxGeometry x="490" y="280" width="60" height="30" as="geometry" />
        </mxCell>
        <mxCell id="2-Nz5hR15z9vdlPKefg0-34" value="企业入职" style="rounded=0;whiteSpace=wrap;html=1;fillColor=#f8cecc;strokeColor=#b85450;" vertex="1" parent="1">
          <mxGeometry x="615" y="315" width="70" height="30" as="geometry" />
        </mxCell>
        <mxCell id="2-Nz5hR15z9vdlPKefg0-35" value="服务" style="rounded=0;whiteSpace=wrap;html=1;fillColor=#f8cecc;strokeColor=#b85450;" vertex="1" parent="1">
          <mxGeometry x="490" y="355" width="70" height="30" as="geometry" />
        </mxCell>
        <mxCell id="2-Nz5hR15z9vdlPKefg0-36" value="互助" style="text;html=1;align=center;verticalAlign=middle;whiteSpace=wrap;rounded=0;" vertex="1" parent="1">
          <mxGeometry x="615" y="280" width="60" height="30" as="geometry" />
        </mxCell>
        <mxCell id="2-Nz5hR15z9vdlPKefg0-37" value="网格" style="rounded=0;whiteSpace=wrap;html=1;fillColor=#f8cecc;strokeColor=#b85450;" vertex="1" parent="1">
          <mxGeometry x="490" y="315" width="70" height="30" as="geometry" />
        </mxCell>
        <mxCell id="2-Nz5hR15z9vdlPKefg0-38" value="问卷" style="rounded=0;whiteSpace=wrap;html=1;fillColor=#f8cecc;strokeColor=#b85450;" vertex="1" parent="1">
          <mxGeometry x="615" y="355" width="70" height="30" as="geometry" />
        </mxCell>
        <mxCell id="2-Nz5hR15z9vdlPKefg0-39" value="企业互助" style="rounded=0;whiteSpace=wrap;html=1;fillColor=#f8cecc;strokeColor=#b85450;" vertex="1" parent="1">
          <mxGeometry x="615" y="390" width="70" height="30" as="geometry" />
        </mxCell>
        <mxCell id="2-Nz5hR15z9vdlPKefg0-40" value="资源兑换" style="rounded=0;whiteSpace=wrap;html=1;fillColor=#f8cecc;strokeColor=#b85450;" vertex="1" parent="1">
          <mxGeometry x="615" y="430" width="70" height="30" as="geometry" />
        </mxCell>
        <mxCell id="2-Nz5hR15z9vdlPKefg0-58" value="系统管理" style="text;html=1;align=center;verticalAlign=middle;whiteSpace=wrap;rounded=0;" vertex="1" parent="1">
          <mxGeometry x="340" y="492.5" width="60" height="30" as="geometry" />
        </mxCell>
        <mxCell id="2-Nz5hR15z9vdlPKefg0-59" value="" style="rounded=0;whiteSpace=wrap;html=1;fillColor=#f8cecc;strokeColor=#b85450;" vertex="1" parent="1">
          <mxGeometry x="460" y="410" width="117.5" height="50" as="geometry" />
        </mxCell>
        <mxCell id="2-Nz5hR15z9vdlPKefg0-61" value="积分管理" style="text;html=1;align=center;verticalAlign=middle;whiteSpace=wrap;rounded=0;" vertex="1" parent="1">
          <mxGeometry x="488.75" y="420" width="60" height="30" as="geometry" />
        </mxCell>
        <mxCell id="2-Nz5hR15z9vdlPKefg0-62" value="账户管理" style="rounded=0;whiteSpace=wrap;html=1;fillColor=#f8cecc;strokeColor=#b85450;" vertex="1" parent="1">
          <mxGeometry x="595" y="492.5" width="80" height="30" as="geometry" />
        </mxCell>
        <mxCell id="2-Nz5hR15z9vdlPKefg0-65" value="党建" style="text;html=1;align=center;verticalAlign=middle;whiteSpace=wrap;rounded=0;" vertex="1" parent="1">
          <mxGeometry x="-500" y="330" width="60" height="30" as="geometry" />
        </mxCell>
        <mxCell id="2-Nz5hR15z9vdlPKefg0-68" value="" style="rounded=0;whiteSpace=wrap;html=1;" vertex="1" parent="1">
          <mxGeometry x="-440" y="325" width="96" height="40" as="geometry" />
        </mxCell>
        <mxCell id="2-Nz5hR15z9vdlPKefg0-69" value="" style="rounded=0;whiteSpace=wrap;html=1;" vertex="1" parent="1">
          <mxGeometry x="-510" y="380" width="400" height="70" as="geometry" />
        </mxCell>
        <mxCell id="2-Nz5hR15z9vdlPKefg0-70" value="" style="rounded=0;whiteSpace=wrap;html=1;" vertex="1" parent="1">
          <mxGeometry x="-510" y="450" width="400" height="70" as="geometry" />
        </mxCell>
        <mxCell id="2-Nz5hR15z9vdlPKefg0-71" value="网格" style="text;html=1;align=center;verticalAlign=middle;whiteSpace=wrap;rounded=0;" vertex="1" parent="1">
          <mxGeometry x="-500" y="395" width="60" height="30" as="geometry" />
        </mxCell>
        <mxCell id="2-Nz5hR15z9vdlPKefg0-72" value="系统" style="text;html=1;align=center;verticalAlign=middle;whiteSpace=wrap;rounded=0;" vertex="1" parent="1">
          <mxGeometry x="-500" y="470" width="60" height="30" as="geometry" />
        </mxCell>
        <mxCell id="2-Nz5hR15z9vdlPKefg0-73" value="" style="rounded=0;whiteSpace=wrap;html=1;fillColor=#cdeb8b;strokeColor=#36393d;" vertex="1" parent="1">
          <mxGeometry x="730" y="170" width="100" height="460" as="geometry" />
        </mxCell>
        <mxCell id="2-Nz5hR15z9vdlPKefg0-74" value="身份认证" style="rounded=0;whiteSpace=wrap;html=1;fillColor=#ffcc99;strokeColor=#36393d;" vertex="1" parent="1">
          <mxGeometry x="738.5" y="275" width="83" height="40" as="geometry" />
        </mxCell>
        <mxCell id="2-Nz5hR15z9vdlPKefg0-75" value="操作日志" style="rounded=0;whiteSpace=wrap;html=1;fillColor=#ffcc99;strokeColor=#36393d;" vertex="1" parent="1">
          <mxGeometry x="738.5" y="330" width="83" height="40" as="geometry" />
        </mxCell>
        <mxCell id="2-Nz5hR15z9vdlPKefg0-76" value="权限" style="rounded=0;whiteSpace=wrap;html=1;fillColor=#ffcc99;strokeColor=#36393d;" vertex="1" parent="1">
          <mxGeometry x="738.5" y="390" width="83" height="40" as="geometry" />
        </mxCell>
        <mxCell id="2-Nz5hR15z9vdlPKefg0-77" value="短信平台" style="rounded=0;whiteSpace=wrap;html=1;fillColor=#ffcc99;strokeColor=#36393d;" vertex="1" parent="1">
          <mxGeometry x="738.5" y="455" width="83" height="40" as="geometry" />
        </mxCell>
        <mxCell id="2-Nz5hR15z9vdlPKefg0-78" value="微信平台" style="rounded=0;whiteSpace=wrap;html=1;fillColor=#ffcc99;strokeColor=#36393d;" vertex="1" parent="1">
          <mxGeometry x="738.5" y="515" width="83" height="40" as="geometry" />
        </mxCell>
        <mxCell id="2-Nz5hR15z9vdlPKefg0-81" value="基础业务" style="text;html=1;align=center;verticalAlign=middle;whiteSpace=wrap;rounded=0;" vertex="1" parent="1">
          <mxGeometry x="750" y="200" width="60" height="30" as="geometry" />
        </mxCell>
      </root>
    </mxGraphModel>
  </diagram>
</mxfile>
